<svg width="642" height="524" viewBox="0 0 642 524" fill="none" xmlns="http://www.w3.org/2000/svg">
<path d="M258.708 178.378H248.25V177.068H256.747V174.187H258.708V178.378ZM238.838 178.378H229.295V177.068H238.838V178.378ZM219.751 178.378H210.208V177.068H219.751V178.378ZM200.796 178.378H191.253V177.068H200.796V178.378ZM181.841 178.378H172.298V177.068H181.841V178.378ZM162.755 178.378H153.211V177.068H162.755V178.378ZM143.799 178.378H134.256V177.068H143.799V178.378ZM124.713 178.378H115.17V177.068H124.713V178.378ZM105.758 178.378H96.2145V177.068H105.758V178.378ZM86.8022 178.378H77.2591V177.068H86.8022V178.378ZM67.716 178.378H58.173V177.068H67.716V178.378ZM48.7606 178.378H39.2176V177.068H48.7606V178.378ZM29.8052 178.378H27.5829V172.091H29.5438V177.068H29.8052V178.378ZM258.708 167.769H256.747V161.221H258.708V167.769ZM29.4131 165.543H27.4521V158.995H29.4131V165.543ZM258.708 154.673H256.747V148.124H258.708V154.673ZM29.4131 152.446H27.4521V145.898H29.4131V152.446ZM258.708 141.576H256.747V135.028H258.708V141.576ZM29.4131 139.35H27.4521V132.801H29.4131V139.35ZM258.708 128.479H256.747V121.931H258.708V128.479ZM29.4131 126.253H27.4521V119.704H29.4131V126.253ZM258.708 115.383H256.747V108.834H258.708V115.383ZM29.4131 113.156H27.4521V106.608H29.4131V113.156ZM258.708 102.286H256.747V95.7374H258.708V102.286ZM29.4131 100.059H27.4521V93.511H29.4131V100.059ZM258.708 89.1891H256.747V82.6407H258.708V89.1891ZM29.4131 86.9626H27.4521V80.4143H29.4131V86.9626ZM258.708 76.0923H256.747V69.544H258.708V76.0923ZM29.4131 73.8659H27.4521V67.3175H29.4131V73.8659ZM258.708 62.9956H256.747V56.4473H258.708V62.9956ZM29.4131 60.7692H27.4521V54.2208H29.4131V60.7692ZM258.708 49.8989H256.747V43.3505H258.708V49.8989ZM29.4131 47.6724H27.4521V41.1241H29.4131V47.6724ZM258.708 36.8022H256.747V30.2538H258.708V36.8022ZM29.4131 34.5757H27.4521V28.0274H29.4131V34.5757ZM258.708 23.7054H256.747V20.4313H253.871V19.1216H258.577V23.7054H258.708ZM29.4131 21.479H27.4521V19.1216H35.4265V20.4313H29.4131V21.479ZM244.459 20.4313H234.916V19.1216H244.459V20.4313ZM225.503 20.4313H215.96V19.1216H225.503V20.4313ZM206.548 20.4313H197.005V19.1216H206.548V20.4313ZM187.462 20.4313H177.919V19.1216H187.462V20.4313ZM168.506 20.4313H158.963V19.1216H168.506V20.4313ZM149.42 20.4313H139.877V19.1216H149.42V20.4313ZM130.465 20.4313H120.922V19.1216H130.465V20.4313ZM111.51 20.4313H101.966V19.1216H111.51V20.4313ZM92.4234 20.4313H82.8804V19.1216H92.4234V20.4313ZM73.468 20.4313H63.925V19.1216H73.468V20.4313ZM54.5126 20.4313H44.9696V19.1216H54.5126V20.4313Z" fill="black"/>
<path d="M35.6877 18.9902H27.1904V24.8838H35.6877V18.9902Z" fill="black"/>
<path d="M258.969 18.9902H250.472V24.8838H258.969V18.9902Z" fill="black"/>
<path d="M258.969 172.353H250.472V178.247H258.969V172.353Z" fill="black"/>
<path d="M604.481 66.4004H202.627V406.653H604.481V66.4004Z" fill="black"/>
<path d="M598.99 67.0552H198.312V406.129H598.99V67.0552Z" fill="white"/>
<path d="M598.336 67.5791V405.475H198.966V67.5791H598.336ZM599.644 66.4004H197.789V406.653H599.644V66.4004Z" fill="black"/>
<path d="M440.419 256.696L435.975 244.254C435.975 244.123 435.713 243.992 435.583 243.861C429.046 242.159 422.771 239.408 416.889 235.741C416.758 235.741 416.758 235.61 416.627 235.61C416.496 235.61 416.496 235.61 416.366 235.61L403.554 242.42L387.998 226.05L394.011 212.036C394.142 211.905 394.011 211.643 394.011 211.512C390.612 205.619 388.129 199.332 386.56 192.784C386.56 192.522 386.298 192.391 386.037 192.391H384.468L370.48 186.497L370.873 163.316L385.776 158.47C385.906 158.47 386.037 158.209 386.168 158.078C387.867 150.35 390.874 143.016 394.926 136.337C395.057 136.075 395.057 135.813 394.796 135.682L394.273 135.027L387.998 120.49L403.554 104.119L418.719 112.108C418.849 112.108 418.849 112.108 418.98 112.108C419.111 112.108 419.111 112.108 419.242 111.977C424.079 109.096 429.308 106.869 434.667 105.429C434.929 105.429 435.06 105.167 435.06 104.905V104.643L440.289 89.7126H462.12L466.826 104.774C466.826 104.905 467.088 105.036 467.218 105.167C473.232 106.607 478.853 108.965 484.213 112.108C484.344 112.108 484.344 112.239 484.474 112.239C484.605 112.239 484.605 112.239 484.736 112.239L500.031 104.119L515.587 120.49L509.313 135.027L508.659 135.813C508.528 135.944 508.397 136.206 508.528 136.468C511.796 141.969 514.28 147.731 516.11 153.887C516.241 154.149 516.372 154.28 516.633 154.28H519.117L533.105 160.173L532.713 183.354L518.202 188.2C518.071 188.2 517.81 188.462 517.81 188.593C516.241 196.713 513.496 204.44 509.443 211.512C509.313 211.643 509.313 211.774 509.443 212.036L515.587 226.312L500.031 242.682L487.089 235.872C486.958 235.872 486.958 235.872 486.827 235.872C486.697 235.872 486.566 235.872 486.566 236.003C480.291 240.063 473.493 242.944 466.303 244.647C466.173 244.647 465.911 244.778 465.911 245.04L462.12 257.089H440.419V256.696ZM451.793 131.884C429.569 131.884 411.529 151.005 411.529 174.448C411.529 197.892 429.569 217.013 451.793 217.013C474.016 217.013 492.057 197.892 492.057 174.448C492.057 151.005 474.016 131.884 451.793 131.884Z" fill="white"/>
<path d="M461.858 90.2365L466.434 104.905C466.564 105.298 466.826 105.56 467.218 105.691C473.101 107.131 478.853 109.489 484.082 112.632C484.213 112.763 484.474 112.763 484.605 112.763C484.735 112.763 484.997 112.763 485.128 112.632L500.031 104.774L515.064 120.49L509.051 134.634L508.397 135.289C508.005 135.682 508.005 136.206 508.266 136.599C511.534 141.969 514.018 147.731 515.718 153.887C515.848 154.279 516.241 154.672 516.764 154.672H519.247L532.712 160.304L532.32 182.83L518.202 187.545C517.809 187.676 517.548 187.938 517.417 188.331C515.979 196.32 513.103 204.047 509.181 210.988C509.051 211.25 509.051 211.643 509.181 211.905L515.195 225.918L500.292 241.766L487.742 235.086C487.611 234.955 487.35 234.955 487.219 234.955C486.958 234.955 486.827 234.955 486.696 235.086C480.552 239.015 473.754 241.896 466.564 243.599C466.172 243.73 465.911 243.992 465.78 244.385L462.12 256.172H441.073L436.759 243.992C436.628 243.599 436.366 243.337 435.974 243.337C429.438 241.635 423.163 238.884 417.542 235.217C417.411 235.086 417.15 235.086 417.019 235.086C416.888 235.086 416.627 235.086 416.496 235.217L404.077 241.766L389.174 225.918L395.057 212.167C395.187 211.905 395.187 211.512 395.057 211.25C391.789 205.488 389.174 199.201 387.605 192.653C387.475 192.129 387.082 191.867 386.559 191.867H385.121L371.657 186.235L372.049 163.709L386.559 158.863C386.952 158.732 387.213 158.47 387.344 158.077C389.043 150.35 392.05 143.147 395.972 136.468C396.233 136.075 396.103 135.551 395.841 135.158L395.318 134.634L388.782 120.49L403.685 104.643L418.457 112.501C418.588 112.632 418.849 112.632 418.98 112.632C419.111 112.632 419.372 112.632 419.503 112.501C424.34 109.62 429.438 107.524 434.798 106.083C435.321 105.953 435.582 105.56 435.582 105.036V104.774L440.68 90.3674H461.858V90.2365ZM451.792 217.668C474.277 217.668 492.579 198.284 492.579 174.579C492.579 150.874 474.277 131.491 451.792 131.491C429.307 131.491 411.005 150.874 411.005 174.579C411.005 198.284 429.307 217.668 451.792 217.668ZM462.643 89.1887H440.027L434.536 104.512V104.905C429.046 106.476 423.817 108.703 418.98 111.453L403.554 103.202L387.475 120.097L393.88 135.027L394.534 135.682C390.481 142.361 387.475 149.696 385.775 157.685L370.48 162.661L370.088 186.628L384.468 192.653H386.167C387.867 199.332 390.351 205.75 393.749 211.512L387.605 225.918L403.685 242.813L416.757 235.872C422.509 239.539 428.784 242.42 435.582 244.123L440.158 256.958H462.773L466.695 244.516C474.016 242.813 480.944 239.801 487.089 235.872L500.292 242.944L516.371 226.049L510.097 211.381C514.018 204.44 516.894 196.582 518.463 188.331L533.366 183.485L533.758 159.518L519.378 153.494H516.764C514.933 147.207 512.319 141.445 509.181 135.944L509.966 135.158L516.371 120.228L500.292 103.333L484.735 111.584C479.376 108.441 473.624 106.083 467.61 104.512L462.643 89.1887ZM451.792 216.62C429.961 216.62 412.051 197.761 412.051 174.579C412.051 151.398 429.83 132.539 451.792 132.539C473.754 132.539 491.533 151.398 491.533 174.579C491.533 197.761 473.624 216.62 451.792 216.62Z" fill="black"/>
<path d="M541.602 311.833L539.902 311.178C540.164 306.594 539.902 302.01 539.118 297.689L539.772 297.296L547.615 288.914L541.079 273.722L528.66 275.424C525.915 272.019 522.646 269.007 518.986 266.518L519.509 255.124L504.475 249.624L497.155 258.529L497.024 258.791C492.972 258.529 488.919 258.66 484.997 259.446L476.631 250.147L461.858 257.482L462.512 269.007L462.774 269.662C458.46 273.067 454.669 277.258 451.531 282.103L440.158 281.711L434.014 297.558L442.119 305.154L443.165 305.547C442.642 310.392 442.772 315.238 443.557 319.953L435.975 328.073L442.511 343.265L452.969 341.824C455.845 345.623 459.505 349.159 463.427 351.909L463.296 361.601L478.33 367.101L483.951 359.767C489.311 360.422 494.54 360.16 499.639 358.981L506.698 366.839L521.47 359.505L520.816 348.242C525.13 344.575 528.921 340.122 532.059 334.883L543.171 335.276L549.315 319.429L541.602 311.833ZM481.337 337.241C466.695 331.871 459.505 314.976 465.127 299.522C470.748 284.068 487.219 275.817 501.73 281.187C516.372 286.556 523.562 303.451 517.94 318.905C512.319 334.359 495.847 342.61 481.337 337.241Z" fill="black"/>
<path d="M565.916 245.695L565.132 245.171C565.655 242.944 565.916 240.718 565.916 238.491L566.309 238.36L570.884 234.955L569.054 226.966L562.91 226.704C561.864 224.871 560.557 223.037 558.988 221.597L560.295 216.096L553.497 212.036L549.183 215.703L549.053 215.834C547.092 215.31 545.131 215.048 543.17 215.048L539.902 209.81L532.058 212.036L531.405 217.668L531.535 217.93C529.182 219.239 526.96 220.942 524.999 223.037L519.508 221.859L515.064 229.193L518.332 233.515L518.855 233.777C518.201 236.134 517.809 238.491 517.809 240.849L513.364 244.123L515.194 252.112L520.424 252.374C521.469 254.469 522.907 256.434 524.607 258.137L523.692 262.851L530.489 266.911L533.888 263.899C536.372 264.685 538.987 264.947 541.601 264.947L544.347 269.4L552.19 267.173L552.844 261.673C555.328 260.232 557.55 258.398 559.38 256.172L564.74 257.351L569.054 250.148L565.916 245.695ZM534.411 252.636C527.875 248.707 525.783 239.932 529.836 232.991C533.888 226.05 542.647 223.43 549.183 227.359C555.72 231.288 557.811 240.063 553.759 247.004C549.706 254.077 540.948 256.565 534.411 252.636Z" fill="url(#paint0_linear)"/>
<path d="M490.748 344.575C510.458 344.575 526.437 328.567 526.437 308.821C526.437 289.074 510.458 273.067 490.748 273.067C471.038 273.067 455.06 289.074 455.06 308.821C455.06 328.567 471.038 344.575 490.748 344.575Z" stroke="white" stroke-width="0.7092" stroke-miterlimit="10" stroke-dasharray="3.55 3.55"/>
<path d="M466.303 81.3306H64.4482V445.551H466.303V81.3306Z" fill="black"/>
<path d="M462.6 82.4651H61.9219V445.506H462.6V82.4651Z" fill="white"/>
<path d="M462.005 82.9907V445.06H60.2964V82.9907H462.005ZM463.188 81.9424H59.2451V446.37H463.188V81.9424Z" fill="black"/>
<path d="M361.983 152.053H88.502V343.265H361.983V152.053Z" fill="black"/>
<path d="M357.146 153.363H89.2861V338.289H357.146V153.363Z" fill="white"/>
<path d="M356.492 154.018V337.503H90.0708V154.018H356.492ZM357.93 152.577H88.6328V338.943H357.93V152.577Z" fill="black"/>
<path d="M604.481 63.5192V82.2475H63.9248V63.5192C63.9248 56.7089 70.7226 51.3392 79.0891 51.3392H589.186C597.683 51.2082 604.481 56.7089 604.481 63.5192Z" fill="black"/>
<path d="M138.309 239.801H201.319" stroke="#A1DAB2" stroke-miterlimit="10"/>
<path d="M138.309 245.04H201.319" stroke="#A1DAB2" stroke-miterlimit="10"/>
<path d="M215.437 226.835C215.437 226.835 145.76 245.171 124.844 263.506C103.927 281.841 119.615 310.654 149.29 323.751C178.965 336.848 224.196 329.906 224.196 329.906V302.01L215.437 226.835Z" fill="#3CA75D"/>
<path d="M138.309 249.755H186.024" stroke="#ED553B" stroke-miterlimit="10"/>
<path d="M115.954 277.781C115.954 277.781 133.602 245.694 161.709 234.562C189.815 223.43 215.307 220.156 232.301 227.359C249.296 234.562 206.156 290.223 206.156 290.223L115.954 277.781Z" fill="#3CA75D"/>
<path d="M320.28 243.468H254.786" stroke="black" stroke-width="2.2422" stroke-miterlimit="10" stroke-linecap="round" stroke-linejoin="round"/>
<path d="M334.922 316.81H298.319C295.966 316.81 294.005 314.845 294.005 312.488V304.63C294.005 302.272 295.966 300.308 298.319 300.308H334.922C337.276 300.308 339.236 302.272 339.236 304.63V312.488C339.236 314.845 337.276 316.81 334.922 316.81Z" fill="url(#paint1_linear)"/>
<path d="M599.644 63.5192V82.2475H59.0879V63.5192C59.0879 56.7089 65.8857 51.3392 74.2522 51.3392H584.349C592.846 51.2082 599.644 56.7089 599.644 63.5192Z" fill="black"/>
<path d="M276.487 250.016C276.749 247.004 277.01 243.73 278.317 241.111C279.494 238.622 282.762 237.051 285.246 239.146" fill="white"/>
<path d="M276.487 250.016C276.749 247.004 277.01 243.73 278.317 241.111C279.494 238.622 282.762 237.051 285.246 239.146" stroke="black" stroke-width="0.9558" stroke-miterlimit="10" stroke-linejoin="round"/>
<path d="M280.017 250.802C280.278 247.528 280.932 244.254 282.37 241.111C283.285 239.277 286.161 234.169 288.645 236.396C288.645 236.396 289.429 235.741 290.606 236.134C291.782 236.396 291.651 236.92 291.651 236.92C291.651 236.92 292.959 236.134 294.004 236.658C295.05 237.182 294.92 238.491 294.92 238.491C294.92 238.491 296.619 238.36 297.011 239.408C297.403 240.456 297.796 241.766 297.796 241.766L294.92 242.028L292.044 252.374" fill="white"/>
<path d="M280.017 250.802C280.278 247.528 280.932 244.254 282.37 241.111C283.285 239.277 286.161 234.169 288.645 236.396C288.645 236.396 289.429 235.741 290.606 236.134C291.782 236.396 291.651 236.92 291.651 236.92C291.651 236.92 292.959 236.134 294.004 236.658C295.05 237.182 294.92 238.491 294.92 238.491C294.92 238.491 296.619 238.36 297.011 239.408C297.403 240.456 297.796 241.766 297.796 241.766L294.92 242.028L292.044 252.374" stroke="black" stroke-width="0.9558" stroke-miterlimit="10" stroke-linejoin="round"/>
<path d="M295.181 238.491C293.743 238.753 292.959 238.491 291.651 242.813L295.181 238.491Z" fill="white"/>
<path d="M295.181 238.491C293.743 238.753 292.959 238.491 291.651 242.813" stroke="black" stroke-width="0.956" stroke-miterlimit="10" stroke-linecap="round" stroke-linejoin="round"/>
<path d="M292.697 236.527C291.259 236.789 290.083 237.967 288.645 242.289L292.697 236.527Z" fill="white"/>
<path d="M292.697 236.527C291.259 236.789 290.083 237.967 288.645 242.289" stroke="black" stroke-width="0.956" stroke-miterlimit="10" stroke-linecap="round" stroke-linejoin="round"/>
<path d="M289.56 236.134C288.122 236.396 287.076 237.706 285.769 242.028L289.56 236.134Z" fill="white"/>
<path d="M289.56 236.134C288.122 236.396 287.076 237.706 285.769 242.028" stroke="black" stroke-width="0.956" stroke-miterlimit="10" stroke-linecap="round" stroke-linejoin="round"/>
<path d="M282.762 238.753L284.461 238.884L281.716 250.933L277.925 250.017L281.454 239.277" fill="white"/>
<path d="M578.205 63.519L586.964 71.3771" stroke="white" stroke-miterlimit="10" stroke-linecap="round"/>
<path d="M586.049 63.519L577.421 71.3771" stroke="white" stroke-miterlimit="10" stroke-linecap="round"/>
<path d="M435.974 284.985C433.752 284.985 431.791 283.151 431.791 280.794C431.791 278.436 433.621 276.603 435.974 276.603C438.327 276.603 440.158 278.436 440.158 280.794C440.158 283.151 438.197 284.985 435.974 284.985ZM435.974 277.912C434.406 277.912 433.098 279.222 433.098 280.794C433.098 282.365 434.406 283.675 435.974 283.675C437.543 283.675 438.85 282.365 438.85 280.794C438.85 279.222 437.543 277.912 435.974 277.912Z" fill="black"/>
<path d="M618.599 252.243C616.377 252.243 614.416 250.409 614.416 248.052C614.416 245.695 616.246 243.861 618.599 243.861C620.952 243.861 622.783 245.695 622.783 248.052C622.783 250.409 620.822 252.243 618.599 252.243ZM618.599 245.171C617.031 245.171 615.723 246.48 615.723 248.052C615.723 249.624 617.031 250.933 618.599 250.933C620.168 250.933 621.475 249.624 621.475 248.052C621.345 246.48 620.168 245.171 618.599 245.171Z" fill="#3CA75D"/>
<path d="M80.1351 71.5082C81.579 71.5082 82.7496 70.3355 82.7496 68.8889C82.7496 67.4422 81.579 66.2695 80.1351 66.2695C78.6911 66.2695 77.5205 67.4422 77.5205 68.8889C77.5205 70.3355 78.6911 71.5082 80.1351 71.5082Z" fill="white"/>
<path d="M91.5081 71.5082C92.9521 71.5082 94.1226 70.3355 94.1226 68.8889C94.1226 67.4422 92.9521 66.2695 91.5081 66.2695C90.0641 66.2695 88.8936 67.4422 88.8936 68.8889C88.8936 70.3355 90.0641 71.5082 91.5081 71.5082Z" fill="white"/>
<path d="M102.75 71.5082C104.194 71.5082 105.365 70.3355 105.365 68.8889C105.365 67.4422 104.194 66.2695 102.75 66.2695C101.306 66.2695 100.136 67.4422 100.136 68.8889C100.136 70.3355 101.306 71.5082 102.75 71.5082Z" fill="white"/>
<path d="M322.555 8.32747L314.453 21.9385L328.039 30.0553L336.141 16.4443L322.555 8.32747Z" fill="white" stroke="black" stroke-miterlimit="10" stroke-linejoin="round"/>
<path d="M627.75 225.526L641.346 233.122" stroke="black" stroke-miterlimit="10" stroke-linecap="round" stroke-linejoin="round"/>
<path d="M638.731 222.644L630.364 236.003" stroke="black" stroke-miterlimit="10" stroke-linecap="round" stroke-linejoin="round"/>
<path d="M346.688 25.1458L360.283 32.7418" stroke="black" stroke-miterlimit="10" stroke-linecap="round" stroke-linejoin="round"/>
<path d="M357.668 22.2644L349.302 35.6231" stroke="black" stroke-miterlimit="10" stroke-linecap="round" stroke-linejoin="round"/>
<path d="M47.7153 219.632C45.493 220.156 43.2706 218.846 42.7477 216.62C42.2248 214.393 43.532 212.167 45.7544 211.643C47.9768 211.119 50.1991 212.429 50.722 214.655C51.2449 216.882 49.9377 219.108 47.7153 219.632ZM46.0159 212.953C44.4471 213.346 43.532 214.917 43.9242 216.358C44.3164 217.93 45.8851 218.846 47.3231 218.453C48.7611 218.061 49.8069 216.489 49.4148 215.048C49.0226 213.477 47.4539 212.56 46.0159 212.953Z" fill="#3CA75D"/>
<path d="M361.459 8.11996C359.237 8.64382 357.015 7.33415 356.492 5.10771C355.969 2.88127 357.276 0.654823 359.499 0.130954C361.721 -0.392915 363.943 0.916757 364.466 3.1432C364.989 5.36964 363.682 7.59609 361.459 8.11996ZM359.76 1.44063C358.191 1.83353 357.276 3.40513 357.668 4.84577C358.061 6.41738 359.629 7.33415 361.067 6.94125C362.636 6.54835 363.551 4.97674 363.159 3.5361C362.767 1.9645 361.198 1.04772 359.76 1.44063Z" fill="#3CA75D"/>
<path d="M411.267 174.579C411.267 197.76 429.046 216.62 451.008 216.62C453.753 216.62 456.498 216.358 459.244 215.703V257.22H439.243L434.667 244.385C428 242.682 421.594 239.801 415.842 236.134L402.77 243.075L386.69 226.18L392.834 211.774C389.566 206.011 386.952 199.594 385.252 192.915H383.553L369.173 186.89L369.565 162.923L384.86 157.946C386.69 150.088 389.697 142.623 393.619 135.944L392.965 135.289L386.56 120.359L402.639 103.333L418.065 111.584C422.902 108.703 428.131 106.476 433.621 105.036V104.643L439.112 89.3196H459.113V133.587C456.498 132.932 453.753 132.67 450.877 132.67C429.046 132.539 411.267 151.398 411.267 174.579Z" fill="#3CA75D"/>
<path d="M87.1942 121.145C87.0635 121.145 87.0635 121.01 87.0635 121.01V102.158C87.0635 102.023 87.1942 102.023 87.1942 102.023H270.081C270.212 102.023 270.212 102.158 270.212 102.158V121.01C270.212 121.145 270.081 121.145 270.081 121.145H87.1942Z" fill="white"/>
<path d="M269.689 102.427V120.471H87.5867V102.427H269.689ZM270.081 101.35H87.1945C86.8023 101.35 86.4102 101.754 86.4102 102.158V121.01C86.4102 121.414 86.8023 121.818 87.1945 121.818H270.081C270.474 121.818 270.866 121.414 270.866 121.01V102.158C270.866 101.619 270.474 101.35 270.081 101.35Z" fill="black"/>
<path d="M355.003 121.835H262.222H259.601V103.911C259.601 102.502 259.601 101.35 259.601 101.35H355.003C356.445 101.35 357.624 102.502 357.624 103.911V119.403C357.624 120.683 356.445 121.835 355.003 121.835Z" fill="#34D5DB"/>
<path d="M36.8862 188.765L30.0459 195.618L36.8862 202.471L43.7266 195.618L36.8862 188.765Z" fill="white" stroke="black" stroke-miterlimit="10" stroke-linejoin="round"/>
<path d="M427.924 262.338L424.134 266.135L427.924 269.931L431.714 266.135L427.924 262.338Z" fill="white" stroke="black" stroke-miterlimit="10" stroke-linejoin="round"/>
<path d="M8.23535 1.17871L19.6086 11.918" stroke="black" stroke-miterlimit="10" stroke-linecap="round" stroke-linejoin="round"/>
<path d="M19.6086 1.17871L8.23535 11.918" stroke="black" stroke-miterlimit="10" stroke-linecap="round" stroke-linejoin="round"/>
<path d="M343.289 160.697L349.695 166.721" stroke="black" stroke-width="0.9" stroke-miterlimit="10" stroke-linecap="round" stroke-linejoin="round"/>
<path d="M349.695 160.697L343.289 166.721" stroke="black" stroke-width="0.9" stroke-miterlimit="10" stroke-linecap="round" stroke-linejoin="round"/>
<path d="M4.18295 30.5154C6.13231 30.5154 7.71257 28.9322 7.71257 26.9792C7.71257 25.0263 6.13231 23.4431 4.18295 23.4431C2.23359 23.4431 0.65332 25.0263 0.65332 26.9792C0.65332 28.9322 2.23359 30.5154 4.18295 30.5154Z" fill="white" stroke="black" stroke-miterlimit="10" stroke-linejoin="round"/>
<path d="M99.1247 112.279H97.7943L97.3911 114.295H96.6704L97.0736 112.279H95.8691V111.605H97.2046L97.5524 109.864H96.2522V109.18H97.6884L98.1017 107.134H98.8223L98.4091 109.18H99.7396L100.153 107.134H100.879L100.465 109.18H101.493V109.864H100.329L99.9815 111.605H101.115V112.279H99.8504L99.4473 114.295H98.7216L99.1247 112.279ZM97.9253 111.605H99.2558L99.6035 109.864H98.273L97.9253 111.605Z" fill="black"/>
<path d="M103.212 108.974L103.237 109.564C103.637 109.105 104.176 108.875 104.855 108.875C105.617 108.875 106.136 109.161 106.412 109.731C106.593 109.476 106.829 109.269 107.118 109.112C107.41 108.954 107.754 108.875 108.151 108.875C109.347 108.875 109.955 109.494 109.975 110.73V114.295H109.043V110.784C109.043 110.403 108.954 110.12 108.776 109.933C108.597 109.743 108.298 109.648 107.879 109.648C107.532 109.648 107.245 109.749 107.017 109.953C106.788 110.153 106.656 110.423 106.619 110.764V114.295H105.681V110.808C105.681 110.035 105.293 109.648 104.517 109.648C103.906 109.648 103.487 109.902 103.262 110.41V114.295H102.33V108.974H103.212Z" fill="black"/>
<path d="M114.753 114.295C114.699 114.19 114.655 114.004 114.622 113.735C114.188 114.174 113.671 114.394 113.069 114.394C112.532 114.394 112.09 114.246 111.744 113.951C111.401 113.653 111.23 113.276 111.23 112.82C111.23 112.266 111.445 111.836 111.875 111.531C112.308 111.223 112.916 111.069 113.699 111.069H114.606V110.651C114.606 110.333 114.509 110.08 114.314 109.894C114.119 109.703 113.832 109.608 113.452 109.608C113.12 109.608 112.841 109.69 112.616 109.854C112.391 110.018 112.278 110.217 112.278 110.449H111.341C111.341 110.184 111.436 109.928 111.628 109.682C111.823 109.433 112.085 109.236 112.414 109.092C112.747 108.948 113.111 108.875 113.508 108.875C114.136 108.875 114.628 109.03 114.984 109.338C115.34 109.643 115.525 110.064 115.539 110.602V113.051C115.539 113.54 115.603 113.928 115.73 114.217V114.295H114.753ZM113.205 113.602C113.498 113.602 113.775 113.528 114.037 113.381C114.299 113.233 114.489 113.041 114.606 112.805V111.713H113.876C112.733 111.713 112.162 112.04 112.162 112.692C112.162 112.977 112.26 113.2 112.454 113.361C112.649 113.522 112.9 113.602 113.205 113.602Z" fill="black"/>
<path d="M116.773 111.59C116.773 110.774 116.972 110.118 117.368 109.623C117.765 109.125 118.284 108.875 118.925 108.875C119.564 108.875 120.069 109.089 120.442 109.515V106.741H121.375V114.295H120.518L120.472 113.725C120.1 114.171 119.58 114.394 118.915 114.394C118.284 114.394 117.768 114.141 117.368 113.636C116.972 113.131 116.773 112.472 116.773 111.659V111.59ZM117.706 111.694C117.706 112.297 117.833 112.769 118.089 113.11C118.344 113.451 118.697 113.622 119.147 113.622C119.738 113.622 120.17 113.363 120.442 112.845V110.4C120.163 109.898 119.735 109.648 119.157 109.648C118.7 109.648 118.344 109.82 118.089 110.164C117.833 110.508 117.706 111.018 117.706 111.694Z" fill="black"/>
<path d="M125.089 114.394C124.35 114.394 123.748 114.158 123.285 113.686C122.821 113.21 122.589 112.576 122.589 111.782V111.615C122.589 111.087 122.692 110.617 122.897 110.203C123.105 109.787 123.394 109.462 123.763 109.23C124.136 108.994 124.539 108.875 124.973 108.875C125.682 108.875 126.233 109.103 126.626 109.559C127.019 110.015 127.215 110.667 127.215 111.517V111.895H123.521C123.535 112.42 123.691 112.845 123.99 113.169C124.293 113.49 124.676 113.651 125.139 113.651C125.468 113.651 125.747 113.586 125.976 113.454C126.204 113.323 126.404 113.149 126.575 112.933L127.145 113.366C126.688 114.051 126.003 114.394 125.089 114.394ZM124.973 109.623C124.597 109.623 124.281 109.757 124.025 110.026C123.77 110.292 123.612 110.666 123.552 111.148H126.283V111.079C126.256 110.617 126.129 110.259 125.9 110.007C125.672 109.751 125.363 109.623 124.973 109.623Z" fill="black"/>
<path d="M132.915 111.694C132.915 112.507 132.724 113.161 132.341 113.656C131.958 114.148 131.444 114.394 130.799 114.394C130.11 114.394 129.577 114.156 129.201 113.681L129.156 114.295H128.299V106.741H129.231V109.559C129.608 109.103 130.127 108.875 130.789 108.875C131.45 108.875 131.97 109.12 132.346 109.608C132.725 110.097 132.915 110.766 132.915 111.615V111.694ZM131.983 111.59C131.983 110.971 131.86 110.492 131.615 110.154C131.37 109.817 131.017 109.648 130.557 109.648C129.942 109.648 129.5 109.926 129.231 110.484V112.785C129.517 113.343 129.962 113.622 130.567 113.622C131.014 113.622 131.361 113.453 131.61 113.115C131.859 112.777 131.983 112.269 131.983 111.59Z" fill="black"/>
<path d="M135.818 112.963L137.088 108.974H138.086L135.894 115.117C135.554 116.002 135.015 116.445 134.276 116.445L134.1 116.43L133.752 116.366V115.628L134.004 115.648C134.32 115.648 134.565 115.586 134.74 115.461C134.918 115.336 135.064 115.109 135.178 114.777L135.385 114.236L133.439 108.974H134.457L135.818 112.963Z" fill="black"/>
<path d="M139.069 114.295V107.134H141.467C142.264 107.134 142.862 107.295 143.262 107.616C143.665 107.938 143.866 108.413 143.866 109.043C143.866 109.377 143.769 109.674 143.574 109.933C143.379 110.189 143.114 110.387 142.778 110.528C143.174 110.636 143.487 110.843 143.715 111.148C143.947 111.449 144.063 111.81 144.063 112.23C144.063 112.872 143.85 113.377 143.423 113.745C142.996 114.112 142.393 114.295 141.614 114.295H139.069ZM140.036 110.946V113.523H141.634C142.084 113.523 142.438 113.41 142.697 113.184C142.959 112.954 143.09 112.64 143.09 112.24C143.09 111.377 142.61 110.946 141.649 110.946H140.036ZM140.036 110.189H141.498C141.921 110.189 142.259 110.085 142.511 109.879C142.766 109.672 142.894 109.392 142.894 109.038C142.894 108.644 142.776 108.359 142.541 108.182C142.306 108.002 141.948 107.912 141.467 107.912H140.036V110.189Z" fill="black"/>
<path d="M151.144 110.946C151.144 111.648 151.023 112.261 150.781 112.785C150.539 113.307 150.196 113.705 149.753 113.981C149.309 114.256 148.792 114.394 148.2 114.394C147.623 114.394 147.11 114.256 146.663 113.981C146.216 113.702 145.869 113.307 145.62 112.795C145.375 112.281 145.249 111.685 145.242 111.01V110.494C145.242 109.805 145.365 109.197 145.61 108.669C145.855 108.141 146.201 107.738 146.648 107.459C147.098 107.177 147.612 107.036 148.19 107.036C148.778 107.036 149.296 107.175 149.743 107.454C150.193 107.73 150.539 108.131 150.781 108.659C151.023 109.184 151.144 109.795 151.144 110.494V110.946ZM150.181 110.484C150.181 109.635 150.006 108.984 149.657 108.531C149.307 108.075 148.819 107.848 148.19 107.848C147.579 107.848 147.097 108.075 146.744 108.531C146.395 108.984 146.215 109.613 146.205 110.42V110.946C146.205 111.769 146.381 112.417 146.734 112.889C147.09 113.358 147.579 113.592 148.2 113.592C148.825 113.592 149.309 113.371 149.652 112.928C149.994 112.482 150.171 111.844 150.181 111.015V110.484Z" fill="black"/>
<path d="M154.177 112.038L154.318 112.982L154.525 112.131L155.976 107.134H156.793L158.209 112.131L158.411 112.997L158.567 112.033L159.706 107.134H160.678L158.899 114.295H158.018L156.506 109.077L156.39 108.531L156.274 109.077L154.707 114.295H153.825L152.051 107.134H153.018L154.177 112.038Z" fill="black"/>
<path d="M163.339 112.038L163.48 112.982L163.687 112.131L165.138 107.134H165.955L167.371 112.131L167.573 112.997L167.729 112.033L168.868 107.134H169.84L168.061 114.295H167.18L165.668 109.077L165.552 108.531L165.436 109.077L163.869 114.295H162.987L161.213 107.134H162.18L163.339 112.038Z" fill="black"/>
<path d="M175.067 110.985H171.887V113.523H175.581V114.295H170.919V107.134H175.53V107.912H171.887V110.213H175.067V110.985Z" fill="black"/>
<path d="M246.158 520.071L335.052 191.736" stroke="black" stroke-width="6" stroke-miterlimit="10" stroke-linecap="round" stroke-linejoin="bevel"/>
<path d="M179.487 520.071L268.382 191.736" stroke="black" stroke-width="6" stroke-miterlimit="10" stroke-linecap="round" stroke-linejoin="bevel"/>
<path d="M330.085 202.868H264.591" stroke="black" stroke-width="2.2422" stroke-miterlimit="10" stroke-linecap="round" stroke-linejoin="round"/>
<path d="M309.169 284.068H243.675" stroke="black" stroke-width="2.2422" stroke-miterlimit="10" stroke-linecap="round" stroke-linejoin="round"/>
<path d="M298.711 323.358H231.909" stroke="black" stroke-width="2.2422" stroke-miterlimit="10" stroke-linecap="round" stroke-linejoin="round"/>
<path d="M288.253 362.648H222.759" stroke="black" stroke-width="2.2422" stroke-miterlimit="10" stroke-linecap="round" stroke-linejoin="round"/>
<path d="M276.488 403.248H212.301" stroke="black" stroke-width="2.2422" stroke-miterlimit="10" stroke-linecap="round" stroke-linejoin="round"/>
<path d="M266.029 443.848H201.842" stroke="black" stroke-width="2.2422" stroke-miterlimit="10" stroke-linecap="round" stroke-linejoin="round"/>
<path d="M255.571 480.519H191.384" stroke="black" stroke-width="2.2422" stroke-miterlimit="10" stroke-linecap="round" stroke-linejoin="round"/>
<path d="M580.427 273.328C578.466 273.328 576.767 271.756 576.767 269.661V106.999C576.767 105.035 578.335 103.332 580.427 103.332C582.519 103.332 584.087 104.904 584.087 106.999V269.661C584.087 271.625 582.388 273.328 580.427 273.328Z" fill="white"/>
<path d="M580.427 103.988C582.127 103.988 583.434 105.298 583.434 107V269.661C583.434 271.364 582.127 272.674 580.427 272.674C578.728 272.674 577.421 271.364 577.421 269.661V107C577.421 105.298 578.728 103.988 580.427 103.988ZM580.427 102.94C578.205 102.94 576.244 104.774 576.244 107.131V269.792C576.244 272.019 578.074 273.983 580.427 273.983C582.78 273.983 584.611 272.15 584.611 269.792V107C584.611 104.774 582.65 102.94 580.427 102.94Z" fill="black"/>
<path d="M580.689 159.387C578.336 159.387 576.375 157.423 576.375 155.065V127.3C576.375 124.943 578.336 122.978 580.689 122.978C583.042 122.978 585.003 124.943 585.003 127.3V155.065C585.003 157.423 583.042 159.387 580.689 159.387Z" fill="#C2EFD0"/>
<path d="M450.615 224.74C478.411 224.74 500.945 202.165 500.945 174.317C500.945 146.47 478.411 123.895 450.615 123.895C422.819 123.895 400.285 146.47 400.285 174.317C400.285 202.165 422.819 224.74 450.615 224.74Z" stroke="black" stroke-miterlimit="10" stroke-dasharray="5 5"/>
<path d="M352.963 389.759C352.701 389.497 352.57 389.104 352.57 388.842L352.44 383.603C352.44 382.686 353.093 381.769 354.139 381.639L358.453 380.984L357.146 365.922C354.139 365.399 351.786 362.779 351.786 359.505C351.786 356.624 353.878 353.873 356.623 353.219C360.414 352.302 364.205 354.79 364.728 358.588C365.12 361.47 363.551 364.22 361.068 365.399L364.074 380.329L368.911 379.674C369.826 379.543 370.741 380.198 370.872 381.115L371.918 386.484C371.918 386.615 371.918 386.746 371.918 386.877C390.22 386.222 406.43 399.45 409.044 418.047L415.711 466.243C417.28 477.768 409.306 488.377 397.802 489.948L359.107 495.318C347.734 496.89 337.275 488.901 335.707 477.638C335.707 477.638 328.647 426.691 328.647 426.429C327.079 403.117 341.197 393.688 352.963 389.759Z" fill="white" stroke="black" stroke-miterlimit="10" stroke-linejoin="round"/>
<path d="M412.574 432.061C417.411 431.406 421.986 435.597 422.901 441.36C423.163 442.669 423.032 444.11 422.901 445.289L429.307 471.22C432.183 471.613 434.536 473.97 434.928 476.983C435.451 480.65 432.836 484.055 429.176 484.579C425.516 485.103 422.117 482.483 421.594 478.816C421.332 476.328 423.686 472.661 423.686 472.661L418.195 452.23C417.28 452.754 416.365 453.016 415.45 453.147C414.927 453.147 414.535 453.278 414.012 453.147L411.136 432.192C411.659 432.192 412.051 432.061 412.574 432.061Z" fill="white" stroke="black" stroke-miterlimit="10" stroke-linejoin="round"/>
<path d="M329.432 446.205C324.595 446.86 321.196 452.23 322.111 457.992C322.242 459.302 322.765 460.612 323.287 461.79L324.203 488.508C321.588 489.686 319.889 492.437 320.281 495.58C320.804 499.247 324.203 501.735 327.863 501.343C331.523 500.819 334.007 497.414 333.615 493.746C333.353 491.258 329.955 488.508 329.955 488.508L329.693 467.291C330.608 467.553 331.654 467.553 332.7 467.422C333.223 467.422 333.615 467.291 334.138 467.16L331.262 446.205C330.477 446.205 329.955 446.205 329.432 446.205Z" fill="white" stroke="black" stroke-miterlimit="10" stroke-linejoin="round"/>
<path d="M397.409 492.83C396.233 499.64 390.35 505.403 382.637 506.45C374.924 507.498 367.734 503.7 364.728 497.414L397.409 492.83Z" fill="white" stroke="black" stroke-miterlimit="10" stroke-linejoin="round"/>
<path d="M364.336 397.748C392.181 393.819 395.449 415.69 395.449 415.952C397.671 423.286 392.05 428.656 385.122 428.787C380.546 428.918 372.964 427.608 368.519 428.263C363.813 428.918 358.192 431.93 353.616 433.371C341.72 437.169 339.236 425.513 339.236 423.155C339.236 411.761 348.91 399.843 364.336 397.748Z" fill="black" stroke="url(#paint2_linear)" stroke-width="0.3511" stroke-miterlimit="10"/>
<path d="M359.63 422.369C359.63 419.095 357.015 416.476 353.747 416.476C350.479 416.476 347.864 419.095 347.864 422.369C347.864 425.644 350.479 428.263 353.747 428.263C357.015 428.263 359.63 425.644 359.63 422.369Z" fill="white" stroke="#0C0005" stroke-width="0.3511" stroke-miterlimit="10"/>
<path d="M358.453 422.369C358.453 419.75 356.362 417.655 353.747 417.655C351.133 417.655 349.041 419.75 349.041 422.369C349.041 424.989 351.133 427.084 353.747 427.084C356.362 427.084 358.453 424.989 358.453 422.369Z" fill="black"/>
<path d="M350.479 422.107V420.536C350.479 420.274 350.74 420.012 351.001 420.012H352.832C353.093 420.012 353.354 420.274 353.354 420.536V422.107C353.354 422.369 353.093 422.631 352.832 422.631H351.001C350.74 422.631 350.479 422.369 350.479 422.107Z" fill="white"/>
<path d="M354.924 426.298V425.644C354.924 425.513 355.055 425.382 355.185 425.382H356.231C356.362 425.382 356.493 425.513 356.493 425.644V426.298C356.493 426.429 356.362 426.56 356.231 426.56H355.185C355.055 426.56 354.924 426.429 354.924 426.298Z" fill="white"/>
<path d="M386.821 417.916C386.821 414.642 384.207 412.023 380.938 412.023C377.67 412.023 375.056 414.642 375.056 417.916C375.056 421.191 377.67 423.81 380.938 423.81C384.076 423.81 386.821 421.191 386.821 417.916Z" fill="white" stroke="#0C0005" stroke-width="0.3511" stroke-miterlimit="10"/>
<path d="M385.514 417.916C385.514 415.297 383.422 413.202 380.808 413.202C378.193 413.202 376.102 415.297 376.102 417.916C376.102 420.536 378.193 422.631 380.808 422.631C383.422 422.631 385.514 420.536 385.514 417.916Z" fill="black"/>
<path d="M377.539 417.655V416.083C377.539 415.821 377.801 415.559 378.062 415.559H379.892C380.154 415.559 380.415 415.821 380.415 416.083V417.655C380.415 417.916 380.154 418.178 379.892 418.178H378.062C377.67 418.178 377.539 417.916 377.539 417.655Z" fill="white"/>
<path d="M381.984 421.845V421.191C381.984 421.06 382.115 420.929 382.246 420.929H383.292C383.422 420.929 383.553 421.06 383.553 421.191V421.845C383.553 421.976 383.422 422.107 383.292 422.107H382.246C382.115 422.107 381.984 421.976 381.984 421.845Z" fill="white"/>
<path d="M344.727 453.016C345.25 456.552 348.257 458.516 351.786 458.123L355.577 457.599C359.107 457.076 361.46 454.325 360.937 450.789C360.414 447.253 357.407 445.289 353.878 445.681L350.087 446.205C346.557 446.729 344.204 449.479 344.727 453.016ZM347.864 452.623C347.603 450.789 348.649 449.087 350.61 448.825L354.401 448.301C356.231 448.039 357.8 449.349 358.061 451.182C358.322 453.016 357.277 454.718 355.316 454.98L351.525 455.504C349.564 455.766 348.126 454.456 347.864 452.623ZM359.238 461.136L349.172 462.576L348.91 460.481L358.976 459.04L359.238 461.136Z" fill="white"/>
<path d="M384.206 449.087C384.729 452.623 387.736 454.587 391.266 454.194L395.057 453.67C398.586 453.147 400.939 450.396 400.417 446.86C399.894 443.324 396.887 441.36 393.357 441.752L389.566 442.276C386.037 442.8 383.684 445.551 384.206 449.087ZM387.213 448.694C386.952 446.86 387.997 445.158 389.958 444.896L393.749 444.372C395.58 444.11 397.148 445.42 397.41 447.253C397.671 449.087 396.625 450.789 394.665 451.051L390.873 451.575C388.913 451.837 387.475 450.527 387.213 448.694ZM398.717 457.076L388.651 458.516L388.39 456.421L398.456 454.98L398.717 457.076Z" fill="url(#paint3_linear)"/>
<path d="M128.374 522.821H337.537" stroke="black" stroke-width="0.868" stroke-miterlimit="10" stroke-linejoin="round"/>
<path d="M353.224 522.821H407.214" stroke="black" stroke-width="0.868" stroke-miterlimit="10" stroke-linejoin="round"/>
<path d="M418.588 522.821H438.589" stroke="black" stroke-width="0.868" stroke-miterlimit="10" stroke-linejoin="round"/>
<path d="M93.4697 522.821H113.471" stroke="black" stroke-width="0.868" stroke-miterlimit="10" stroke-linejoin="round"/>
<path d="M285.245 270.185V301.487H27.1904V270.185C27.1904 266.78 29.6742 263.899 32.8117 263.899H279.493C282.631 264.03 285.245 266.78 285.245 270.185Z" fill="black"/>
<path d="M280.016 278.698H27.9746V311.44H280.016V278.698Z" fill="white"/>
<path d="M279.232 279.353V310.654H28.6284V279.353H279.232ZM280.67 277.913H27.1904V311.964H280.539V277.913H280.67Z" fill="black"/>
<path d="M66.6709 286.949H95.4308" stroke="black" stroke-miterlimit="10" stroke-linecap="round" stroke-linejoin="round"/>
<path d="M66.6709 302.665H95.4308" stroke="black" stroke-miterlimit="10" stroke-linejoin="round"/>
<path d="M101.575 286.949H115.432" stroke="black" stroke-miterlimit="10" stroke-linecap="round" stroke-linejoin="round"/>
<path d="M66.6709 293.891H105.758" stroke="black" stroke-miterlimit="10" stroke-linecap="round" stroke-linejoin="round"/>
<path d="M113.994 293.891H132.95" stroke="black" stroke-miterlimit="10" stroke-linecap="round" stroke-linejoin="round"/>
<path d="M138.309 188.724H165.761" stroke="black" stroke-miterlimit="10" stroke-linecap="round" stroke-linejoin="round"/>
<path d="M138.309 199.987H201.319" stroke="#A1DAB2" stroke-miterlimit="10"/>
<path d="M138.309 206.143H186.024" stroke="#A1DAB2" stroke-miterlimit="10"/>
<path d="M138.309 228.407H177.134" stroke="black" stroke-miterlimit="10" stroke-linecap="round" stroke-linejoin="round"/>
<path d="M170.99 315.107C170.99 315.107 159.617 340.384 178.834 387.532C188.508 411.368 188.115 497.414 188.115 497.414L210.993 498.461C210.993 498.461 218.575 436.121 216.875 414.38C215.176 392.509 212.823 349.159 212.823 349.159L170.99 315.107Z" fill="white" stroke="black" stroke-width="0.9558" stroke-miterlimit="10" stroke-linejoin="round"/>
<path d="M238.969 432.323L256.225 375.483C256.225 375.352 256.225 375.09 256.094 374.959C255.963 374.828 255.833 374.697 255.571 374.697C246.682 374.697 237.662 374.304 227.726 373.649C225.504 373.518 223.02 373.387 220.406 373.387C207.856 372.995 192.299 372.602 185.632 362.124C179.619 352.564 179.096 338.026 179.488 326.239L217.268 330.561C217.268 330.561 217.268 330.561 217.399 330.561C217.399 330.561 220.536 330.168 225.373 330.168C240.015 330.168 267.467 333.05 286.553 352.171C306.162 371.816 265.245 428.787 262.107 433.109L238.969 432.323Z" fill="white"/>
<path d="M180.141 326.894L217.137 331.085H217.268H217.399C217.399 331.085 220.405 330.692 225.242 330.692C232.04 330.692 242.498 331.347 253.61 334.359C266.813 338.026 277.664 344.051 286.03 352.433C304.855 371.292 266.029 426.298 261.715 432.323L239.753 431.537L256.747 375.483C256.878 375.09 256.747 374.697 256.617 374.435C256.355 374.173 255.963 373.911 255.571 373.911C246.681 373.911 237.661 373.519 227.726 372.864C225.504 372.733 223.02 372.602 220.405 372.602C207.986 372.209 192.561 371.816 186.155 361.6C180.403 352.564 179.88 338.55 180.141 326.894ZM178.834 325.584C178.442 337.11 178.703 352.433 185.109 362.517C193.214 375.483 214.523 373.388 227.595 374.304C236.877 374.959 246.159 375.352 255.44 375.352L238.053 432.978L262.238 433.894C262.238 433.894 307.731 372.733 286.815 351.778C267.336 332.264 238.838 329.644 225.112 329.644C220.144 329.644 217.137 330.037 217.137 330.037L178.834 325.584Z" fill="black"/>
<path d="M204.718 235.479C198.574 235.479 192.692 234.431 187.07 232.336C188.116 228.014 203.542 191.736 205.634 187.283C207.987 182.306 210.47 177.722 215.569 177.722C215.961 177.722 216.484 177.722 216.876 177.853C221.059 178.508 224.066 182.306 226.288 185.711C226.419 185.842 226.55 185.973 226.681 185.973L230.733 190.95C230.864 191.212 231.125 191.474 231.256 191.605C231.256 191.736 231.256 191.867 231.256 191.998L231.125 192.129C230.864 192.26 230.602 192.391 230.472 192.784C230.341 193.177 230.341 193.438 230.341 193.569C230.472 194.748 230.864 195.796 231.387 196.844L231.648 197.498C232.302 199.07 232.694 200.773 233.086 202.344C233.348 203.523 233.478 204.702 233.086 205.749C232.825 206.273 232.563 206.928 231.91 207.583C229.295 210.595 225.373 211.905 221.451 212.953C221.321 212.953 221.19 213.084 221.059 213.215C220.536 214 220.144 215.048 220.013 215.965C218.837 221.727 218.314 227.752 218.445 233.645C213.869 234.824 209.294 235.479 204.718 235.479Z" fill="white"/>
<path d="M215.438 178.377C215.83 178.377 216.222 178.377 216.745 178.508C220.667 179.032 223.543 182.83 225.635 186.104C225.765 186.235 225.896 186.497 226.158 186.497L229.818 190.95L230.079 191.343C230.21 191.474 230.21 191.605 230.341 191.736C230.079 191.867 229.687 192.129 229.556 192.522C229.295 193.046 229.426 193.569 229.426 193.7C229.556 194.879 230.079 196.058 230.472 197.106C230.602 197.368 230.602 197.499 230.733 197.76C231.256 199.332 231.779 200.904 232.171 202.475C232.432 203.523 232.563 204.702 232.302 205.618C232.171 206.142 231.779 206.666 231.256 207.19C228.772 210.071 224.85 211.381 221.19 212.429C220.928 212.56 220.667 212.691 220.536 212.953C219.883 213.869 219.621 214.917 219.36 215.965C218.183 221.596 217.66 227.49 217.791 233.253C213.608 234.431 209.294 234.955 204.849 234.955C198.966 234.955 193.345 233.907 187.985 232.074C189.815 226.049 204.457 191.867 206.418 187.676C208.379 182.699 210.862 178.377 215.438 178.377ZM215.438 177.068C209.817 177.068 207.202 182.306 204.98 187.021C203.28 190.819 185.371 232.467 186.286 232.729C192.169 234.955 198.313 236.134 204.588 236.134C209.424 236.134 214.131 235.479 218.837 234.169C218.575 228.145 219.098 222.12 220.275 216.227C220.406 215.31 220.667 214.393 221.19 213.738C225.112 212.56 229.164 211.25 231.91 208.107C232.432 207.452 232.955 206.797 233.217 206.011C233.609 204.833 233.478 203.523 233.217 202.213C232.825 200.511 232.432 198.808 231.779 197.237C231.256 196.058 230.733 194.748 230.602 193.439C230.602 193.308 230.602 193.046 230.602 192.915C230.733 192.653 231.125 192.522 231.387 192.391C231.648 192.129 231.779 191.736 231.648 191.343C231.517 190.95 231.256 190.688 231.125 190.426C229.687 188.724 228.38 186.89 226.942 185.188H226.811C224.327 181.39 221.19 177.722 217.007 177.068C216.484 177.068 215.961 177.068 215.438 177.068Z" fill="black"/>
<path d="M220.536 178.246C220.536 178.246 207.464 170.257 190.208 188.986C172.952 207.714 171.645 211.643 171.645 211.643C171.645 211.643 190.338 219.763 203.934 219.763C214.654 219.763 216.745 220.025 216.745 220.025V197.761C216.745 197.761 221.713 192.653 223.282 188.593C224.85 184.533 223.412 179.818 220.536 178.246Z" fill="black"/>
<path d="M193.606 331.216H170.99V353.873H193.606V331.216Z" fill="white"/>
<path d="M221.582 193.962C219.883 193.701 215.961 194.617 215.961 196.975C215.961 200.904 221.713 198.808 223.543 197.761C224.197 197.368 224.72 196.975 224.981 196.32C225.504 194.617 222.628 194.093 221.582 193.962Z" fill="#E3E6E4"/>
<path d="M224.457 305.939L229.687 330.168C229.687 330.168 222.497 338.026 195.044 343.92C167.591 349.813 157.133 345.23 157.133 345.23C157.133 345.23 155.826 296.772 162.362 267.959C168.899 239.146 176.742 231.288 176.742 231.288L218.575 237.836L224.457 305.939Z" fill="#3CA75D"/>
<path d="M41.702 273.721C42.8572 273.721 43.7936 272.783 43.7936 271.626C43.7936 270.469 42.8572 269.531 41.702 269.531C40.5468 269.531 39.6104 270.469 39.6104 271.626C39.6104 272.783 40.5468 273.721 41.702 273.721Z" fill="white"/>
<path d="M50.7225 273.721C51.8777 273.721 52.8141 272.783 52.8141 271.626C52.8141 270.469 51.8777 269.531 50.7225 269.531C49.5673 269.531 48.6309 270.469 48.6309 271.626C48.6309 272.783 49.5673 273.721 50.7225 273.721Z" fill="white"/>
<path d="M59.6112 273.721C60.7663 273.721 61.7028 272.783 61.7028 271.626C61.7028 270.469 60.7663 269.531 59.6112 269.531C58.456 269.531 57.5195 270.469 57.5195 271.626C57.5195 272.783 58.456 273.721 59.6112 273.721Z" fill="white"/>
<path d="M110.464 165.936C111.619 165.936 112.555 164.997 112.555 163.84C112.555 162.683 111.619 161.745 110.464 161.745C109.309 161.745 108.372 162.683 108.372 163.84C108.372 164.997 109.309 165.936 110.464 165.936Z" fill="black"/>
<path d="M119.353 165.936C120.509 165.936 121.445 164.997 121.445 163.84C121.445 162.683 120.509 161.745 119.353 161.745C118.198 161.745 117.262 162.683 117.262 163.84C117.262 164.997 118.198 165.936 119.353 165.936Z" fill="black"/>
<path d="M128.373 165.936C129.528 165.936 130.465 164.997 130.465 163.84C130.465 162.683 129.528 161.745 128.373 161.745C127.218 161.745 126.281 162.683 126.281 163.84C126.281 164.997 127.218 165.936 128.373 165.936Z" fill="black"/>
<path d="M212.039 258.791C212.039 258.791 227.072 326.894 259.1 331.478C291.128 336.062 253.871 240.456 235.569 228.014C217.268 215.572 173.474 226.704 161.709 234.562C149.943 242.42 212.039 258.791 212.039 258.791Z" fill="#3CA75D"/>
<path d="M262.369 330.168C262.369 330.168 276.749 336.717 283.939 307.249C291.129 277.781 294.397 252.243 294.397 252.243L274.134 249.624L259.101 280.401" fill="#3CA75D"/>
<path d="M240.407 432.978L237.139 442.407" stroke="black" stroke-width="0.74" stroke-miterlimit="10" stroke-linejoin="round"/>
<path d="M253.348 432.454C253.348 432.454 252.825 437.431 256.093 438.478C259.362 439.526 267.597 440.836 267.597 440.836" stroke="black" stroke-width="0.9558" stroke-miterlimit="10" stroke-linejoin="round"/>
<path d="M270.343 372.209L255.571 375.352L261.193 366.184" fill="white"/>
<path d="M270.343 372.209L255.571 375.352L261.193 366.184" stroke="black" stroke-width="0.956" stroke-miterlimit="10" stroke-linecap="round" stroke-linejoin="round"/>
<path d="M206.418 498.723C206.549 499.771 206.679 502.259 206.679 500.164" stroke="black" stroke-width="0.9558" stroke-miterlimit="10" stroke-linejoin="round"/>
<path d="M206.418 498.199C206.418 498.199 206.418 498.33 206.418 498.461V498.592C206.418 499.247 206.549 500.557 206.679 503.045C207.202 510.641 211.124 515.487 214.785 518.368" stroke="black" stroke-width="0.9558" stroke-miterlimit="10" stroke-linejoin="round"/>
<path d="M193.737 497.545L190.469 508.415" stroke="black" stroke-width="0.9558" stroke-miterlimit="10" stroke-linejoin="round"/>
<path d="M220.667 522.036C220.667 522.036 220.667 522.036 211.516 522.036C202.365 522.036 189.554 511.82 189.554 511.82L190.469 508.546C192.43 510.118 203.803 518.63 212.169 518.63H214.784C217.921 520.988 220.667 522.036 220.667 522.036Z" fill="black" stroke="black" stroke-width="0.956" stroke-miterlimit="10"/>
<path d="M190.992 508.677C190.861 508.546 190.73 508.415 190.73 508.415L193.084 498.199" stroke="black" stroke-width="0.9558" stroke-miterlimit="10" stroke-linejoin="round"/>
<path d="M265.637 265.34L254.525 290.223" stroke="black" stroke-width="0.956" stroke-miterlimit="10" stroke-linecap="round" stroke-linejoin="round"/>
<path d="M222.105 292.45L206.81 262.065" stroke="black" stroke-width="0.956" stroke-miterlimit="10" stroke-linecap="round" stroke-linejoin="round"/>
<path d="M157.133 311.44L156.741 325.847" stroke="black" stroke-width="0.956" stroke-miterlimit="10" stroke-linecap="round" stroke-linejoin="round"/>
<path d="M161.84 267.042C161.84 267.042 163.801 257.874 166.807 251.326C169.814 244.778 171.383 241.896 171.383 241.896" stroke="black" stroke-width="0.956" stroke-miterlimit="10" stroke-linecap="round" stroke-linejoin="round"/>
<path d="M46.6691 303.975C51.362 303.975 55.1664 300.164 55.1664 295.462C55.1664 290.761 51.362 286.949 46.6691 286.949C41.9762 286.949 38.1719 290.761 38.1719 295.462C38.1719 300.164 41.9762 303.975 46.6691 303.975Z" fill="#3CA75D"/>
<path d="M116.869 209.024C123.223 209.024 128.373 203.864 128.373 197.498C128.373 191.133 123.223 185.973 116.869 185.973C110.516 185.973 105.365 191.133 105.365 197.498C105.365 203.864 110.516 209.024 116.869 209.024Z" fill="black"/>
<path d="M116.869 249.623C123.223 249.623 128.373 244.464 128.373 238.098C128.373 231.733 123.223 226.573 116.869 226.573C110.516 226.573 105.365 231.733 105.365 238.098C105.365 244.464 110.516 249.623 116.869 249.623Z" fill="black"/>
<path d="M201.319 503.438H208.248" stroke="black" stroke-miterlimit="10" stroke-linecap="round" stroke-linejoin="round"/>
<path d="M202.234 506.45H209.163" stroke="black" stroke-miterlimit="10" stroke-linecap="round" stroke-linejoin="round"/>
<path d="M203.019 509.594H210.078" stroke="black" stroke-miterlimit="10" stroke-linecap="round" stroke-linejoin="round"/>
<path d="M247.335 435.597H254.263" stroke="black" stroke-miterlimit="10" stroke-linecap="round" stroke-linejoin="round"/>
<path d="M249.034 437.562H255.963" stroke="black" stroke-miterlimit="10" stroke-linecap="round" stroke-linejoin="round"/>
<path d="M224.85 190.033C225.5 190.033 226.027 189.506 226.027 188.855C226.027 188.204 225.5 187.676 224.85 187.676C224.201 187.676 223.674 188.204 223.674 188.855C223.674 189.506 224.201 190.033 224.85 190.033Z" fill="black"/>
<path d="M231.255 198.808C231.255 198.808 229.556 199.856 226.811 199.201" stroke="black" stroke-width="0.868" stroke-miterlimit="10" stroke-linecap="round" stroke-linejoin="round"/>
<path d="M286.553 236.134C285.115 236.396 284.069 237.706 282.762 242.028" stroke="black" stroke-width="0.956" stroke-miterlimit="10" stroke-linecap="round" stroke-linejoin="round"/>
<path d="M236.616 439.657L234.263 446.467" stroke="white" stroke-width="0.9558" stroke-miterlimit="10" stroke-linejoin="round"/>
<path d="M401.593 370.768V364.089C401.593 363.827 401.463 363.696 401.332 363.565C394.011 359.243 389.566 351.385 389.566 343.003C389.566 329.775 400.286 319.036 413.489 319.036C426.693 319.036 437.282 329.775 437.282 343.003C437.282 351.385 432.968 359.112 425.778 363.434C425.647 363.565 425.516 363.696 425.516 363.958V370.899H401.593V370.768Z" fill="white"/>
<path d="M413.359 319.56C426.17 319.56 436.628 330.037 436.628 342.872C436.628 351.123 432.445 358.588 425.386 362.779C424.994 363.041 424.732 363.434 424.732 363.827V370.113H402.117V364.089C402.117 363.696 401.855 363.172 401.463 363.041C394.404 358.85 389.959 351.123 389.959 343.003C390.09 330.037 400.548 319.56 413.359 319.56ZM413.359 318.381C399.894 318.381 388.913 329.383 388.913 342.872C388.913 351.909 393.75 359.767 401.071 364.089V371.554H426.17V363.958C433.23 359.636 437.936 351.909 437.936 343.003C437.805 329.383 426.824 318.381 413.359 318.381Z" fill="black"/>
<path d="M413.359 364.482C425.128 364.482 434.668 354.924 434.668 343.134C434.668 331.344 425.128 321.786 413.359 321.786C401.591 321.786 392.051 331.344 392.051 343.134C392.051 354.924 401.591 364.482 413.359 364.482Z" fill="#C2EFD0"/>
<path d="M424.863 376.007H401.855C400.94 376.007 400.155 375.221 400.155 374.304C400.155 373.388 400.94 372.602 401.855 372.602H424.863C425.778 372.602 426.562 373.388 426.562 374.304C426.562 375.221 425.778 376.007 424.863 376.007Z" fill="black"/>
<path d="M423.032 380.067H403.554C402.77 380.067 401.985 379.412 401.985 378.495C401.985 377.709 402.639 376.924 403.554 376.924H423.032C423.817 376.924 424.601 377.578 424.601 378.495V378.626C424.601 379.412 423.947 380.067 423.032 380.067Z" fill="black"/>
<path d="M423.032 384.389H403.554C402.77 384.389 401.985 383.734 401.985 382.817V382.686C401.985 381.901 402.639 381.115 403.554 381.115H423.032C423.817 381.115 424.601 381.77 424.601 382.686V382.817C424.601 383.734 423.947 384.389 423.032 384.389Z" fill="black"/>
<path d="M411.529 371.423V343.265C411.529 341.039 409.699 339.205 407.476 339.205C405.254 339.205 403.424 341.039 403.424 343.265V345.753C403.424 347.98 405.254 349.813 407.476 349.813H420.549C422.771 349.813 424.602 347.98 424.602 345.753V343.527C424.602 341.301 422.771 339.467 420.549 339.467C418.327 339.467 416.497 341.301 416.497 343.527V370.899" stroke="black" stroke-width="0.868" stroke-miterlimit="10" stroke-linejoin="round"/>
<path d="M397.802 311.964L400.678 317.727" stroke="black" stroke-width="0.868" stroke-miterlimit="10" stroke-linejoin="round"/>
<path d="M384.729 320.084L389.566 324.275" stroke="black" stroke-width="0.868" stroke-miterlimit="10" stroke-linejoin="round"/>
<path d="M430.223 311.964L427.347 317.727" stroke="black" stroke-width="0.868" stroke-miterlimit="10" stroke-linejoin="round"/>
<path d="M443.296 320.084L438.328 324.275" stroke="black" stroke-width="0.868" stroke-miterlimit="10" stroke-linejoin="round"/>
<path d="M412.705 307.904V314.452" stroke="black" stroke-width="0.868" stroke-miterlimit="10" stroke-linejoin="round"/>
<path d="M378.062 334.752L384.599 334.621" stroke="black" stroke-width="0.868" stroke-miterlimit="10" stroke-linejoin="round"/>
<path d="M379.5 348.897L385.644 346.67" stroke="black" stroke-width="0.868" stroke-miterlimit="10" stroke-linejoin="round"/>
<path d="M448.132 348.897L441.988 346.67" stroke="black" stroke-width="0.868" stroke-miterlimit="10" stroke-linejoin="round"/>
<path d="M442.772 334.752L449.309 334.621" stroke="black" stroke-width="0.868" stroke-miterlimit="10" stroke-linejoin="round"/>
<path d="M89.1553 173.663H359.76" stroke="black" stroke-miterlimit="10"/>
<path d="M90.4629 372.733H157.787" stroke="black" stroke-width="1.6972" stroke-miterlimit="10" stroke-linecap="round" stroke-linejoin="round"/>
<path d="M90.4629 383.865H142.754" stroke="black" stroke-miterlimit="10"/>
<defs>
<linearGradient id="paint0_linear" x1="513.356" y1="239.635" x2="570.833" y2="239.635" gradientUnits="userSpaceOnUse">
<stop stop-color="#DFFC87"/>
<stop offset="1" stop-color="#0DCBEE"/>
</linearGradient>
<linearGradient id="paint1_linear" x1="293.918" y1="308.515" x2="339.236" y2="308.515" gradientUnits="userSpaceOnUse">
<stop stop-color="#DFFC87" stop-opacity="0.6"/>
<stop offset="1" stop-color="#0DCBEE"/>
</linearGradient>
<linearGradient id="paint2_linear" x1="395.181" y1="410.7" x2="338.44" y2="418.573" gradientUnits="userSpaceOnUse">
<stop stop-color="#0DCBEE"/>
<stop offset="1" stop-color="#DFFC87"/>
</linearGradient>
<linearGradient id="paint3_linear" x1="402.036" y1="444.468" x2="384.529" y2="455.222" gradientUnits="userSpaceOnUse">
<stop stop-color="#DFFC87" stop-opacity="0.6"/>
<stop offset="1" stop-color="#0DCBEE"/>
</linearGradient>
</defs>
</svg>
